<svg xmlns="http://www.w3.org/2000/svg" viewBox="0 0 180 180" role="img" aria-label="Budgetly app icon">
  <rect width="180" height="180" rx="40" fill="#0f172a"/>
  <rect x="42" y="40" width="96" height="104" rx="22" fill="#2563eb"/>
  <rect x="58" y="58" width="64" height="58" rx="10" fill="#fff"/>
  <rect x="72" y="75" width="36" height="9" fill="#0f172a"/>
  <circle cx="103" cy="124" r="24" fill="#10b981"/>
  <path fill="#fff" d="M98 139v-6c-5-1-9-5-11-10l9-3c1 4 4 5 7 5 3 0 5-1 5-3s-2-3-7-4c-8-2-12-6-12-12 0-5 4-10 9-12v-5h8v5c5 1 8 5 10 9l-8 3c-1-2-3-4-6-4-2 0-4 1-4 3s2 3 7 4c8 2 12 6 12 12 0 6-4 11-11 12v6h-8Z"/>
</svg>
