<svg xmlns="http://www.w3.org/2000/svg" viewBox="0 0 512 512" role="img" aria-label="Budgetly app icon">
  <rect width="512" height="512" rx="96" fill="#0f172a"/>
  <path fill="#2563eb" d="M122 166c0-29 24-53 53-53h162c29 0 53 24 53 53v180c0 29-24 53-53 53H175c-29 0-53-24-53-53V166Z"/>
  <path fill="#ffffff" d="M176 196c0-14 11-25 25-25h110c14 0 25 11 25 25v120c0 14-11 25-25 25H201c-14 0-25-11-25-25V196Z"/>
  <path fill="#0f172a" d="M219 221h74v24h-74v-24Zm0 48h32v32h-32v-32Zm50 0h32v32h-32v-32Z"/>
  <path fill="#10b981" d="M351 363c0 35-28 63-63 63s-63-28-63-63 28-63 63-63 63 28 63 63Z"/>
  <path fill="#ffffff" d="M280 393v-15c-12-3-21-11-25-22l21-8c3 8 8 12 16 12 6 0 10-2 10-7 0-4-4-6-16-9-19-5-27-13-27-27 0-13 8-23 21-27v-13h18v13c11 3 19 10 23 20l-20 8c-3-6-7-9-13-9-5 0-9 2-9 6 0 5 5 7 17 10 17 5 26 12 26 27 0 14-8 24-24 28v14h-18Z"/>
</svg>
